<?xml version="1.0" encoding="UTF-8" standalone="no"?>
<!-- Created with Inkscape (http://www.inkscape.org/) -->

<svg
   xmlns:dc="http://purl.org/dc/elements/1.1/"
   xmlns:cc="http://creativecommons.org/ns#"
   xmlns:rdf="http://www.w3.org/1999/02/22-rdf-syntax-ns#"
   xmlns:svg="http://www.w3.org/2000/svg"
   xmlns="http://www.w3.org/2000/svg"
   xmlns:xlink="http://www.w3.org/1999/xlink"
   xmlns:sodipodi="http://sodipodi.sourceforge.net/DTD/sodipodi-0.dtd"
   xmlns:inkscape="http://www.inkscape.org/namespaces/inkscape"
   width="35"
   height="22"
   id="svg3052"
   version="1.1"
   inkscape:version="0.48.4 r9939"
   sodipodi:docname="New document 1">
  <defs
     id="defs3054" />
  <sodipodi:namedview
     id="base"
     pagecolor="#ffffff"
     bordercolor="#666666"
     borderopacity="1.0"
     inkscape:pageopacity="0.0"
     inkscape:pageshadow="2"
     inkscape:zoom="22.627417"
     inkscape:cx="24.131805"
     inkscape:cy="9.5000001"
     inkscape:document-units="px"
     inkscape:current-layer="layer1"
     showgrid="false"
     inkscape:window-width="1920"
     inkscape:window-height="1149"
     inkscape:window-x="0"
     inkscape:window-y="25"
     inkscape:window-maximized="1" />
  <metadata
     id="metadata3057">
    <rdf:RDF>
      <cc:Work
         rdf:about="">
        <dc:format>image/svg+xml</dc:format>
        <dc:type
           rdf:resource="http://purl.org/dc/dcmitype/StillImage" />
        <dc:title></dc:title>
      </cc:Work>
    </rdf:RDF>
  </metadata>
  <g
     inkscape:label="Layer 1"
     inkscape:groupmode="layer"
     id="layer1"
     transform="translate(0,-1030.3622)">
    <g
       transform="matrix(0.15,0,0,0.15,-4.0991055,1024.3987)"
       id="g3">
      <defs
         id="defs5">
        <path
           inkscape:connector-curvature="0"
           id="SVGID_1_"
           d="m 216.59,114.766 c -1.783,-5.349 -1.275,-14.475 -2.189,-15.791 -5.943,-8.158 -27.619,-9.598 -37.359,-20.342 1.711,-5.285 -1.768,-9.676 -5.322,-13.017 -5.342,-3.893 -12.766,-2.174 -18.496,-0.618 -6.502,-1.378 -12.52,-3.7 -18.846,-5.556 -14.094,-1.54 -28.068,8.412 -28.068,8.412 -10.057,6.387 -25.842,19.633 -33.397,27.365 1.85,0.268 3.818,-1.127 5.904,-1.381 L 93.268,90.09 c -6.027,4.974 -18.694,13.72 -22.393,20.66 4.514,-1.547 14,-6.784 18.698,-7.181 -4.129,3.642 -12.732,10.543 -15.448,14.953 0.321,0.159 0.094,0.542 0.143,0.812 3.541,-1.949 12.151,-7.051 16.044,-7.372 -4.036,4.182 -11.453,12.235 -13.106,17.655 3.495,-2.285 12.274,-6.907 16.108,-8.301 -0.888,2.137 -2.833,3.713 -4.104,5.848 -1.758,2.953 -5.881,6.297 -6.066,9.818 3.07,-2.854 6.868,-5.354 10.683,-7.352 -1.722,3.547 -4.854,6.471 -5.734,10.701 2.509,-2.42 7.233,-3.658 10.446,-4.764 l -0.387,0.375 c -0.275,0.227 -3.912,2.793 -6.387,5.666 2.186,-0.123 0.559,-0.4 3.352,0.24 l 1.514,0.08 c -0.752,0.395 -1.578,0.83 -2.449,1.291 l 0,0 c -1.348,0.715 -2.8,1.494 -4.269,2.297 6.003,7.668 13.46,13.82 22.019,17.992 11.15,5.439 23.305,7.217 35.471,5.83 -0.146,-0.715 -0.307,-1.428 -0.492,-2.133 l 0,0 c 0,-0.002 0,-0.006 -0.002,-0.012 -0.225,-0.861 -0.484,-1.713 -0.789,-2.551 l 0,0 c -0.018,-0.045 -0.029,-0.092 -0.049,-0.137 4.162,-7.729 1.975,-20.973 12.627,-26.286 7.172,-3.654 7.986,-5.668 16.227,-4.096 4.451,0.848 14.172,4.207 18.848,3.203 4.244,-2.352 6.377,-3.432 10.043,-6.164 4.584,0.832 6.068,0.367 7.754,-2.062 -1.525,2.119 2.971,-8.291 4.871,-12.213 l 0.149,-2.121 z" />
      </defs>
      <clipPath
         id="SVGID_2_">
        <use
           height="1052.3622"
           width="744.09448"
           y="0"
           x="0"
           style="overflow:visible"
           xlink:href="#SVGID_1_"
           overflow="visible"
           id="use9" />
      </clipPath>
      <use
         height="1052.3622"
         width="744.09448"
         y="0"
         x="0"
         style="fill:none;stroke:#ed1c24;overflow:visible"
         xlink:href="#SVGID_1_"
         overflow="visible"
         id="use11" />
    </g>
    <g
       transform="matrix(0.15,0,0,0.15,-4.0991055,1024.3987)"
       id="g13">
      <defs
         id="defs15">
        <path
           inkscape:connector-curvature="0"
           id="SVGID_3_"
           d="m 216.59,114.766 c -1.783,-5.349 -1.275,-14.475 -2.189,-15.791 -5.943,-8.158 -27.619,-9.598 -37.359,-20.342 1.711,-5.285 -1.768,-9.676 -5.322,-13.017 -5.342,-3.893 -12.766,-2.174 -18.496,-0.618 -6.502,-1.378 -12.52,-3.7 -18.846,-5.556 -14.094,-1.54 -28.068,8.412 -28.068,8.412 -10.057,6.387 -25.842,19.633 -33.397,27.365 1.85,0.268 3.818,-1.127 5.904,-1.381 L 93.268,90.09 c -6.027,4.974 -18.694,13.72 -22.393,20.66 4.514,-1.547 14,-6.784 18.698,-7.181 -4.129,3.642 -12.732,10.543 -15.448,14.953 0.321,0.159 0.094,0.542 0.143,0.812 3.541,-1.949 12.151,-7.051 16.044,-7.372 -4.036,4.182 -11.453,12.235 -13.106,17.655 3.495,-2.285 12.274,-6.907 16.108,-8.301 -0.888,2.137 -2.833,3.713 -4.104,5.848 -1.758,2.953 -5.881,6.297 -6.066,9.818 3.07,-2.854 6.868,-5.354 10.683,-7.352 -1.722,3.547 -4.854,6.471 -5.734,10.701 2.509,-2.42 7.233,-3.658 10.446,-4.764 l -0.387,0.375 c -0.275,0.227 -3.912,2.793 -6.387,5.666 2.186,-0.123 0.559,-0.4 3.352,0.24 l 1.514,0.08 c -0.752,0.395 -1.578,0.83 -2.449,1.291 l 0,0 c -1.348,0.715 -2.8,1.494 -4.269,2.297 6.003,7.668 13.46,13.82 22.019,17.992 11.15,5.439 23.305,7.217 35.471,5.83 -0.146,-0.715 -0.307,-1.428 -0.492,-2.133 l 0,0 c 0,-0.002 0,-0.006 -0.002,-0.012 -0.225,-0.861 -0.484,-1.713 -0.789,-2.551 l 0,0 c -0.018,-0.045 -0.029,-0.092 -0.049,-0.137 4.162,-7.729 1.975,-20.973 12.627,-26.286 7.172,-3.654 7.986,-5.668 16.227,-4.096 4.451,0.848 14.172,4.207 18.848,3.203 4.244,-2.352 6.377,-3.432 10.043,-6.164 4.584,0.832 6.068,0.367 7.754,-2.062 -1.525,2.119 2.971,-8.291 4.871,-12.213 l 0.149,-2.121 z" />
      </defs>
      <clipPath
         id="SVGID_4_">
        <use
           height="1052.3622"
           width="744.09448"
           y="0"
           x="0"
           style="overflow:visible"
           xlink:href="#SVGID_3_"
           overflow="visible"
           id="use19" />
      </clipPath>
      <use
         height="1052.3622"
         width="744.09448"
         y="0"
         x="0"
         style="fill:none;stroke:#ed1c24;overflow:visible"
         xlink:href="#SVGID_3_"
         overflow="visible"
         id="use21" />
    </g>
    <g
       transform="matrix(0.15,0,0,0.15,-4.0991055,1024.3987)"
       id="g23">
      <defs
         id="defs25">
        <path
           inkscape:connector-curvature="0"
           id="SVGID_5_"
           d="m 216.59,114.766 c -1.783,-5.349 -1.275,-14.475 -2.189,-15.791 -5.943,-8.158 -27.619,-9.598 -37.359,-20.342 1.711,-5.285 -1.768,-9.676 -5.322,-13.017 -5.342,-3.893 -12.766,-2.174 -18.496,-0.618 -6.502,-1.378 -12.52,-3.7 -18.846,-5.556 -14.094,-1.54 -28.068,8.412 -28.068,8.412 -10.057,6.387 -25.842,19.633 -33.397,27.365 1.85,0.268 3.818,-1.127 5.904,-1.381 L 93.268,90.09 c -6.027,4.974 -18.694,13.72 -22.393,20.66 4.514,-1.547 14,-6.784 18.698,-7.181 -4.129,3.642 -12.732,10.543 -15.448,14.953 0.321,0.159 0.094,0.542 0.143,0.812 3.541,-1.949 12.151,-7.051 16.044,-7.372 -4.036,4.182 -11.453,12.235 -13.106,17.655 3.495,-2.285 12.274,-6.907 16.108,-8.301 -0.888,2.137 -2.833,3.713 -4.104,5.848 -1.758,2.953 -5.881,6.297 -6.066,9.818 3.07,-2.854 6.868,-5.354 10.683,-7.352 -1.722,3.547 -4.854,6.471 -5.734,10.701 2.509,-2.42 7.233,-3.658 10.446,-4.764 l -0.387,0.375 c -0.275,0.227 -3.912,2.793 -6.387,5.666 2.186,-0.123 0.559,-0.4 3.352,0.24 l 1.514,0.08 c -0.752,0.395 -1.578,0.83 -2.449,1.291 l 0,0 c -1.348,0.715 -2.8,1.494 -4.269,2.297 6.003,7.668 13.46,13.82 22.019,17.992 11.15,5.439 23.305,7.217 35.471,5.83 -0.146,-0.715 -0.307,-1.428 -0.492,-2.133 l 0,0 c 0,-0.002 0,-0.006 -0.002,-0.012 -0.225,-0.861 -0.484,-1.713 -0.789,-2.551 l 0,0 c -0.018,-0.045 -0.029,-0.092 -0.049,-0.137 4.162,-7.729 1.975,-20.973 12.627,-26.286 7.172,-3.654 7.986,-5.668 16.227,-4.096 4.451,0.848 14.172,4.207 18.848,3.203 4.244,-2.352 6.377,-3.432 10.043,-6.164 4.584,0.832 6.068,0.367 7.754,-2.062 -1.525,2.119 2.971,-8.291 4.871,-12.213 l 0.149,-2.121 z" />
      </defs>
      <clipPath
         id="SVGID_6_">
        <use
           height="1052.3622"
           width="744.09448"
           y="0"
           x="0"
           style="overflow:visible"
           xlink:href="#SVGID_5_"
           overflow="visible"
           id="use29" />
      </clipPath>
      <use
         height="1052.3622"
         width="744.09448"
         y="0"
         x="0"
         style="fill:none;stroke:#ed1c24;overflow:visible"
         xlink:href="#SVGID_5_"
         overflow="visible"
         id="use31" />
    </g>
    <path
       style="fill:#c13932"
       inkscape:connector-curvature="0"
       d="m 28.389395,1041.6136 c -0.26745,-0.8024 -0.19125,-2.1713 -0.32835,-2.3687 -0.89145,-1.2237 -4.14285,-1.4397 -5.60385,-3.0513 0.25665,-0.7927 -0.2652,-1.4514 -0.7983,-1.9525 -0.8013,-0.584 -1.9149,-0.3261 -2.7744,-0.093 -0.9753,-0.2067 -1.878,-0.555 -2.8269,-0.8334 -2.1141,-0.231 -4.2102,1.2618 -4.2102,1.2618 -1.50855,0.958 -3.8763005,2.9449 -5.0095508,4.1047 0.2775003,0.04 0.5727003,-0.169 0.8856003,-0.2071 l 2.1676495,-0.5622 c -0.90405,0.7461 -2.8040995,2.058 -3.3589498,3.099 0.6771003,-0.2321 2.0999998,-1.0176 2.8046998,-1.0772 -0.61935,0.5463 -1.9097995,1.5815 -2.3171998,2.243 0.04815,0.024 0.0141,0.081 0.02145,0.1218 0.5311503,-0.2924 1.8226498,-1.0577 2.4065998,-1.1058 -0.6054,0.6273 -1.7179495,1.8352 -1.9658995,2.6482 0.5242495,-0.3427 1.8410995,-1.036 2.4161995,-1.2451 -0.1332,0.3205 -0.42495,0.5569 -0.6156,0.8772 -0.2637,0.4429 -0.88215,0.9445 -0.9099,1.4727 0.4605,-0.4281 1.0302,-0.8031 1.60245,-1.1028 -0.2583,0.532 -0.7281,0.9706 -0.8601,1.6051 0.37635,-0.363 1.084951,-0.5487 1.566901,-0.7146 l -0.05805,0.056 c -0.04125,0.034 -0.5868,0.4189 -0.958051,0.8499 0.3279,-0.018 0.08385,-0.06 0.502801,0.036 l 0.2271,0.012 c -0.1128,0.059 -0.2367,0.1245 -0.36735,0.1936 l 0,0 c -0.202201,0.1073 -0.420001,0.2241 -0.640351,0.3446 0.900451,1.1502 2.019001,2.073 3.302851,2.6988 1.6725,0.8158 3.49575,1.0825 5.32065,0.8745 -0.0219,-0.1073 -0.04605,-0.2142 -0.0738,-0.32 l 0,0 c 0,0 0,0 -3e-4,0 -0.03375,-0.1291 -0.0726,-0.2569 -0.11835,-0.3826 l 0,0 c -0.0027,-0.01 -0.0044,-0.014 -0.0074,-0.021 0.6243,-1.1593 0.29625,-3.1459 1.89405,-3.9429 1.0758,-0.5481 1.1979,-0.8502 2.43405,-0.6144 0.66765,0.1272 2.1258,0.6311 2.8272,0.4805 0.6366,-0.3528 0.95655,-0.5148 1.50645,-0.9246 0.6876,0.1248 0.9102,0.055 1.1631,-0.3093 -0.22875,0.3178 0.44565,-1.2437 0.73065,-1.832 l 0.02235,-0.3181 z"
       id="path33" />
    <g
       transform="matrix(0.15,0,0,0.15,-4.0991055,1024.3987)"
       id="g35">
      <path
         inkscape:connector-curvature="0"
         d="m 29.519,85.535 h 12.536 v 5.373 h -5.373 v 42.257 h 5.373 v 5.371 H 29.519 V 85.535 z"
         id="path37" />
      <path
         inkscape:connector-curvature="0"
         d="m 47.425,85.535 h 12.533 v 5.373 h -5.37 v 42.257 h 5.37 v 5.371 H 47.425 V 85.535 z"
         id="path39" />
    </g>
    <g
       transform="matrix(0.15,0,0,0.15,-4.0991055,1024.3987)"
       id="g41">
      <path
         inkscape:connector-curvature="0"
         d="m 258.481,138.536 h -12.533 v -5.371 h 5.374 V 90.908 h -5.374 v -5.373 h 12.533 v 53.001 z"
         id="path43" />
      <path
         inkscape:connector-curvature="0"
         d="m 240.577,138.536 h -12.534 v -5.371 h 5.378 V 90.908 h -5.378 v -5.373 h 12.534 v 53.001 z"
         id="path45" />
    </g>
  </g>
</svg>
